<?xml version="1.0"?><svg width="640" height="480" xmlns="http://www.w3.org/2000/svg">
 <title>Airplane gray</title>
 <g>
  <title>Layer 1</title>
  <g transform="rotate(-18.5926, 339.742, 206.879)" id="layer1">
   <g id="g2302">
    <path d="m215.636826,168.541534l-1.423721,-11.495895l-7.829773,-0.821167l-0.711945,4.926804l9.965439,7.390259z" id="path2212" stroke-width="1px" stroke="#999999" fill-rule="evenodd" fill="#999999"/>
    <path d="m372.945618,169.36261l-15.65976,-47.625717l-12.100708,-2.463425c0,0 0.711945,28.739716 0,41.056763c-0.711792,12.31694 -0.711792,13.138046 -0.711792,13.138046l28.47226,-4.105667z" id="path2210" stroke-width="1px" stroke="#999999" fill-rule="evenodd" fill="#999999"/>
    <path d="m176.487564,183.321884c3.559021,-2.463425 10.677017,-2.463425 10.677017,-2.463425l-25.624985,-49.26796l13.524261,-1.642212l50.538208,46.804535l236.319077,-12.317001c0,0 21.354218,0.821106 29.895752,3.284576c8.541718,2.463379 13.524292,9.032425 17.083435,10.674667c3.559021,1.642365 10.677063,4.105682 11.388855,9.032532c0.71167,4.926758 1.423645,5.747925 -3.559082,9.032425c-4.982727,3.284592 -24.913208,9.032471 -30.607697,9.853607c-5.694275,0.821152 -93.958069,2.463364 -97.51709,4.105652c-3.559021,1.642288 -18.506927,5.747879 -22.77774,5.747879c-4.270905,0 -49.114502,0.821136 -54.097229,-0.82103c-4.982483,-1.642349 -68.333221,-4.105713 -75.451263,-5.747971c-7.117996,-1.642242 -33.454758,-8.211349 -37.725693,-9.853546c-4.270782,-1.642365 -17.795029,-4.92688 -20.642288,-8.211395c-2.847244,-3.2845 -1.423538,-8.211334 -1.423538,-8.211334z" id="path2204" stroke-width="1px" stroke="#999999" fill-rule="evenodd" fill="#999999"/>
    <path d="m202.748123,201.181168c0,0 26.12738,5.945877 37.409714,6.540604c11.282318,0.594513 48.692017,0.594513 92.039734,1.189133c43.34787,0.594574 194.768127,-13.08107 174.578735,-7.135223c-20.189362,5.946091 -17.814209,5.351364 -25.533661,5.946091l-93.227325,3.56752c0,0 -8.907166,2.972977 -14.251343,3.567551c-5.344269,0.594574 -58.786743,0.594574 -58.786743,0.594574l-29.096375,-2.378281c0,0 -42.160172,-1.18924 -48.09816,-2.378464c-5.938187,-1.189194 -35.034576,-9.513504 -35.034576,-9.513504z" id="path2298" stroke-width="1px" fill-rule="evenodd" fill-opacity="0.286486" fill="#999999" stroke="#999999"/>
    <path d="m185.740906,192.354355l-27.048553,19.707214l13.524261,-1.642288c0,0 36.302017,-16.422684 37.013962,-17.243759c0.711761,-0.821167 7.829773,-2.463425 0,-4.105713c-7.829956,-1.642319 -23.48967,3.284546 -23.48967,3.284546z" id="path2206" stroke-width="1px" stroke="#999999" fill-rule="evenodd" fill="#999999"/>
    <path d="m330.981903,234.758087c1.889404,-0.968781 7.963837,-2.788666 14.579956,-3.905029c-0.311798,0.336731 18.245117,-4.590012 20.380432,-0.052994c2.135468,2.84166 2.509369,3.609726 2.811218,9.747421c-0.537842,4.200287 -1.295532,10.296509 -4.808624,11.02298c-4.982697,0 -18.890778,-0.094482 -30.279724,-2.557983c-11.388794,-2.463348 -15.659729,-3.284454 -15.659729,-3.284454l0.711914,-7.390137l12.264557,-3.579803z" id="path2214" stroke-width="1px" stroke="#999999" fill-rule="evenodd" fill="#999999"/>
    <path d="m320.272064,212.882706c-5.694458,9.853561 -12.812469,18.886063 -12.812469,18.886063l-69.045044,59.94278c0,0 2.13533,4.926727 9.253357,1.642181c7.118164,-3.284546 88.263733,-58.300446 88.263733,-58.300446l32.031219,-24.634003c0,0 4.982758,-1.642288 0,-4.105652c-4.982513,-2.463394 -14.947784,-1.642273 -24.912994,0c-9.965271,1.642288 -22.777802,6.569077 -22.777802,6.569077z" id="path2208" stroke-width="1px" stroke="#999999" fill-rule="evenodd" fill="#999999"/>
    <path d="m239.126328,194.817734l63.35054,-0.821136" id="path2216" stroke-dashoffset="0" stroke-dasharray="4.3000000 4.3000000 " stroke-miterlimit="4" stroke-width="4.3" stroke="#999999" fill-rule="evenodd" fill-opacity="0.75" fill="#999999"/>
    <path d="m318.136597,193.175522l72.604065,-0.821167" id="path2218" stroke-dashoffset="0" stroke-dasharray="4.5000000 4.5000000 " stroke-miterlimit="4" stroke-width="4.5" stroke="#999999" fill-rule="evenodd" fill-opacity="0.75" fill="#999999"/>
    <path d="m408.535858,190.712097l56.232513,-0.821136" id="path2220" stroke-dashoffset="0" stroke-dasharray="4.9000000 4.9000000 " stroke-miterlimit="4" stroke-width="4.9" stroke="#999999" fill-rule="evenodd" fill-opacity="0.75" fill="#999999"/>
    <path d="m224.178375,197.895844c-0.519531,-2.739944 -0.087463,0.685089 -0.799393,-4.24173c-0.192245,-3.299866 0.05719,-4.136414 0.502548,-6.362686l5.576401,0.307358c0,0 -0.296844,0.649841 -0.296844,4.755569c0,4.105667 0.68132,4.292267 1.200851,6.176086l-6.183563,-0.634598z" id="path2222" stroke-opacity="0.47027" stroke-width="1px" stroke="#999999" fill-rule="evenodd" fill-opacity="0.75" fill="#999999"/>
    <path d="m308.022858,201.301147c0,0 -0.97818,-1.319504 -1.689941,-7.067413c-0.711914,-5.74791 0.414948,-7.763443 0.637604,-8.105927l6.925781,-0.206406c0,0 -0.711975,3.954193 -0.148499,8.246429c0.414856,3.179169 1.36261,6.055298 1.807983,7.168472l-7.532928,-0.035156z" id="path2224" stroke-opacity="0.47027" stroke-width="1px" stroke="#999999" fill-rule="evenodd" fill-opacity="0.75" fill="#999999"/>
    <path d="m395.723358,200.565659c0,0 -1.541595,-4.140793 -1.541595,-8.246399c0,-4.105682 0.637604,-8.004974 0.637604,-8.004974l7.563354,-0.085617c-0.148529,1.284348 -0.371185,4.292252 -0.371185,7.576767c0,3.284561 1.541626,8.538544 1.541626,8.538544l-7.829803,0.22168z" id="path2226" stroke-opacity="0.47027" stroke-width="1px" stroke="#999999" fill-rule="evenodd" fill-opacity="0.75" fill="#999999"/>
    <path d="m471.812225,198.88829c0,0 -1.082977,-2.564423 -1.690125,-8.826141c-0.087463,-5.747864 -0.030457,-9.939163 0.340759,-10.024719l7.192322,-0.478699c0.445221,1.969421 0.030273,4.105713 0.742065,9.853577c0.118073,5.748032 1.572205,9.682373 0.607147,9.511185l-7.192169,-0.035202z" id="path2228" stroke-opacity="0.47027" stroke-width="1px" stroke="#999999" fill-rule="evenodd" fill-opacity="0.75" fill="#999999"/>
    <path d="m487.550354,181.877182l0.209351,8.231995c0,0 2.518616,0.243774 7.770752,-1.693878c5.246582,-1.937698 12.383453,-9.688385 12.383453,-10.169693c0,-0.487518 -5.665405,-4.362869 -5.665405,-4.362869c0,0 0.418823,1.456375 -2.309204,3.394028c-2.733521,1.937729 -12.388947,4.600418 -12.388947,4.600418l0,0z" id="path2230" stroke-width="1px" stroke="#999999" fill-rule="evenodd" fill-opacity="0.264865" fill="#999999"/>
    <path d="m364.321777,249.931732c-2.729156,-2.906311 -2.729156,-5.085907 -2.729156,-8.476563c0,-3.390656 0.20993,-8.71875 1.679504,-9.687515c1.469666,-0.968781 1.049652,-1.453186 2.519318,0.242233c1.469604,1.695251 2.099487,4.843719 2.099487,6.781219c0,1.937531 -0.210083,5.328125 -1.049835,7.507751c-0.839752,2.179718 -1.679504,3.632874 -2.519318,3.632874z" id="path2232" stroke-width="1px" stroke="#999999" fill-rule="evenodd" fill-opacity="0.681081" fill="#999999"/>
    <path d="m188.496796,179.831039l-9.50087,-19.180359c0,0 7.719452,13.700195 12.469879,15.755249c4.750443,2.055038 31.47168,0.685043 31.47168,0.685043l-34.440689,2.740067z" id="path2292" stroke-width="1px" fill-rule="evenodd" fill-opacity="0.286486" fill="#999999" stroke="#999999"/>
    <path d="m360.700226,209.286362c0,0 -21.376923,18.495239 -62.943329,46.580734c-41.566284,28.085327 -48.692062,34.935425 -52.254761,34.935425c-3.562897,0 0,-3.425079 0,-3.425079c0,0 84.320282,-56.170731 115.19809,-78.09108z" id="path2294" stroke-width="1px" fill-rule="evenodd" fill-opacity="0.286486" fill="#999999" stroke="#999999"/>
    <path d="m357.417206,127.407967l12.469757,41.785561l-22.564484,1.370026c0,0 4.156586,0.685043 15.438904,-3.425064c11.282318,-4.110123 -5.344177,-39.730522 -5.344177,-39.730522z" id="path2296" stroke-width="1px" fill-rule="evenodd" fill-opacity="0.286486" fill="#999999" stroke="#999999"/>
    <path d="m321.9664,245.483887c17.333038,5.071625 39.661072,5.648529 40.994751,5.071625c-1.167053,-3.077148 -2.72934,-4.051483 -2.468964,-9.494995c0.593872,-8.904999 1.30191,-8.315277 1.968781,-10.815445c-1.500366,1.346237 -2.562469,4.254715 -3.750031,8.364883c0.312653,5.071594 1.968597,6.610107 -3.375519,8.665161c-5.34433,2.054993 -33.369019,-1.791229 -33.369019,-1.791229z" id="path2300" stroke-width="1px" fill-rule="evenodd" fill-opacity="0.286486" fill="#999999" stroke="#999999"/>
   </g>
  </g>
 </g>
</svg>